# xmcd
#
# Track frame offsets: 
#        183
#        13098
#        31105
#        44280
#        68148
#        88038
#        97715
#        109488
#        125298
#        144260
#        168195
#        181358
#        193538
#
# Disc length: 2666 seconds
#
# Revision: 0
# Processed by: cddbd v1.4PL0 Copyright (c) Steve Scherf et al.
# Submitted via: ExactAudioCopy v0.90b4
#
DISCID=a00a680d
DTITLE=Buddy Greene - Sojourners Song
DYEAR=1990
DGENRE=Christian Rock
TTITLE0=He Is There
TTITLE1=Surely Goodness And Mercy
TTITLE2=God Is With Us
TTITLE3=Looking For Suzanne
TTITLE4=Man Against Man
TTITLE5=Come Thou Fount
TTITLE6=The Hope Of The Gospel
TTITLE7=How Long
TTITLE8=Divine Love
TTITLE9=I Don't Belong
TTITLE10=Sing Praise/Praise To The Lord The Almighty
TTITLE11=He Will Listen To You
TTITLE12=Come Thou Fount
EXTD=
EXTT0=
EXTT1=
EXTT2=
EXTT3=
EXTT4=
EXTT5=
EXTT6=
EXTT7=
EXTT8=
EXTT9=
EXTT10=
EXTT11=
EXTT12=
PLAYORDER=
